<svg id="visual" viewBox="0 0 900 900" width="900" height="900" xmlns="http://www.w3.org/2000/svg" xmlns:xlink="http://www.w3.org/1999/xlink" version="1.1"><g stroke-width="1" stroke-linejoin="bevel"><path d="M464.3 475.7L483.3 508L508 431.3Z" fill="#03121f" stroke="#03121f"></path><path d="M390 526L488.6 536L483.3 508Z" fill="#061322" stroke="#061322"></path><path d="M483.3 508L598.6 488.3L508 431.3Z" fill="#0f172a" stroke="#0f172a"></path><path d="M573.9 541.3L598.6 488.3L483.3 508Z" fill="#061322" stroke="#061322"></path><path d="M549 559.9L573.9 541.3L483.3 508Z" fill="#00101c" stroke="#00101c"></path><path d="M488.6 536L549 559.9L483.3 508Z" fill="#041320" stroke="#041320"></path><path d="M549 559.9L580.3 549.6L573.9 541.3Z" fill="#0a1526" stroke="#0a1526"></path><path d="M573.9 541.3L580.3 549.6L598.6 488.3Z" fill="#091524" stroke="#091524"></path><path d="M532.6 590.6L553.3 569.3L549 559.9Z" fill="#071423" stroke="#071423"></path><path d="M549 559.9L553.3 569.3L580.3 549.6Z" fill="#041320" stroke="#041320"></path><path d="M508 431.3L409.4 421.7L464.3 475.7Z" fill="#041320" stroke="#041320"></path><path d="M464.3 475.7L390 526L483.3 508Z" fill="#01111d" stroke="#01111d"></path><path d="M488.6 536L532.6 590.6L549 559.9Z" fill="#03121f" stroke="#03121f"></path><path d="M553.3 569.3L581.9 583.6L580.3 549.6Z" fill="#00101c" stroke="#00101c"></path><path d="M532.6 590.6L552.9 585.9L553.3 569.3Z" fill="#0d1629" stroke="#0d1629"></path><path d="M363.7 463.3L390 526L464.3 475.7Z" fill="#0a1526" stroke="#0a1526"></path><path d="M488.6 536L405.4 618.6L532.6 590.6Z" fill="#0a1526" stroke="#0a1526"></path><path d="M552.9 585.9L581.9 583.6L553.3 569.3Z" fill="#0d1629" stroke="#0d1629"></path><path d="M580.3 549.6L640.9 488L598.6 488.3Z" fill="#00101c" stroke="#00101c"></path><path d="M640.1 638.9L581.9 583.6L552.9 585.9Z" fill="#0d1629" stroke="#0d1629"></path><path d="M505.6 332.7L394.7 395.4L409.4 421.7Z" fill="#061322" stroke="#061322"></path><path d="M409.4 421.7L363.7 463.3L464.3 475.7Z" fill="#071423" stroke="#071423"></path><path d="M638.1 585.6L640.9 488L580.3 549.6Z" fill="#061322" stroke="#061322"></path><path d="M642.1 450L556.3 345.1L508 431.3Z" fill="#00101c" stroke="#00101c"></path><path d="M642.1 450L508 431.3L598.6 488.3Z" fill="#091524" stroke="#091524"></path><path d="M508 431.3L505.6 332.7L409.4 421.7Z" fill="#0a1526" stroke="#0a1526"></path><path d="M640.9 488L642.1 450L598.6 488.3Z" fill="#0d1629" stroke="#0d1629"></path><path d="M556.3 345.1L505.6 332.7L508 431.3Z" fill="#071423" stroke="#071423"></path><path d="M394.7 395.4L363.7 463.3L409.4 421.7Z" fill="#0d1629" stroke="#0d1629"></path><path d="M363.7 463.3L373.7 528L390 526Z" fill="#0f172a" stroke="#0f172a"></path><path d="M390 526L392.7 601.6L488.6 536Z" fill="#01111d" stroke="#01111d"></path><path d="M690.9 462.7L655.1 474.3L739.4 502Z" fill="#061322" stroke="#061322"></path><path d="M640.9 488L655.1 474.3L642.1 450Z" fill="#03121f" stroke="#03121f"></path><path d="M373.7 528L392.7 601.6L390 526Z" fill="#01111d" stroke="#01111d"></path><path d="M316.4 399L334.7 482.7L363.7 463.3Z" fill="#0a1526" stroke="#0a1526"></path><path d="M363.7 463.3L334.7 482.7L373.7 528Z" fill="#0a1526" stroke="#0a1526"></path><path d="M373.7 528L322.4 558.3L392.7 601.6Z" fill="#071423" stroke="#071423"></path><path d="M640.1 638.9L638.1 585.6L581.9 583.6Z" fill="#0a1526" stroke="#0a1526"></path><path d="M581.9 583.6L638.1 585.6L580.3 549.6Z" fill="#071423" stroke="#071423"></path><path d="M640.1 638.9L552.9 585.9L543.6 715.1Z" fill="#0c1627" stroke="#0c1627"></path><path d="M392.7 601.6L405.4 618.6L488.6 536Z" fill="#01111d" stroke="#01111d"></path><path d="M690.9 462.7L663.6 389.4L642.1 450Z" fill="#00101c" stroke="#00101c"></path><path d="M642.1 450L663.6 389.4L556.3 345.1Z" fill="#03121f" stroke="#03121f"></path><path d="M739.4 502L655.1 474.3L640.9 488Z" fill="#03121f" stroke="#03121f"></path><path d="M655.1 474.3L690.9 462.7L642.1 450Z" fill="#0f172a" stroke="#0f172a"></path><path d="M334.7 482.7L322.4 558.3L373.7 528Z" fill="#071423" stroke="#071423"></path><path d="M357 656.6L425.3 675.4L405.4 618.6Z" fill="#01111d" stroke="#01111d"></path><path d="M378 287.7L316.4 399L394.7 395.4Z" fill="#0f172a" stroke="#0f172a"></path><path d="M394.7 395.4L316.4 399L363.7 463.3Z" fill="#071423" stroke="#071423"></path><path d="M334.7 482.7L250.9 468.3L322.4 558.3Z" fill="#0f172a" stroke="#0f172a"></path><path d="M543.6 715.1L552.9 585.9L532.6 590.6Z" fill="#0c1627" stroke="#0c1627"></path><path d="M739.4 502L738.4 445.7L690.9 462.7Z" fill="#061322" stroke="#061322"></path><path d="M425.3 675.4L434 674.1L405.4 618.6Z" fill="#0d1629" stroke="#0d1629"></path><path d="M405.4 618.6L434 674.1L532.6 590.6Z" fill="#00101c" stroke="#00101c"></path><path d="M630.9 272.9L565.3 267.4L556.3 345.1Z" fill="#0a1526" stroke="#0a1526"></path><path d="M556.3 345.1L565.3 267.4L505.6 332.7Z" fill="#03121f" stroke="#03121f"></path><path d="M505.6 332.7L434 271.4L394.7 395.4Z" fill="#0a1526" stroke="#0a1526"></path><path d="M516 220.6L434 271.4L505.6 332.7Z" fill="#0d1629" stroke="#0d1629"></path><path d="M359.7 636.1L405.4 618.6L392.7 601.6Z" fill="#01111d" stroke="#01111d"></path><path d="M322.4 558.3L359.7 636.1L392.7 601.6Z" fill="#01111d" stroke="#01111d"></path><path d="M434 271.4L378 287.7L394.7 395.4Z" fill="#041320" stroke="#041320"></path><path d="M739.4 502L640.9 488L638.1 585.6Z" fill="#061322" stroke="#061322"></path><path d="M690.9 462.7L738.4 445.7L663.6 389.4Z" fill="#03121f" stroke="#03121f"></path><path d="M663.6 389.4L630.9 272.9L556.3 345.1Z" fill="#03121f" stroke="#03121f"></path><path d="M774.4 598.9L739.4 502L638.1 585.6Z" fill="#0f172a" stroke="#0f172a"></path><path d="M715.4 333.1L630.9 272.9L663.6 389.4Z" fill="#061322" stroke="#061322"></path><path d="M359.7 636.1L357 656.6L405.4 618.6Z" fill="#091524" stroke="#091524"></path><path d="M264.1 628.9L357 656.6L359.7 636.1Z" fill="#0c1627" stroke="#0c1627"></path><path d="M357.7 791.7L457.3 712.9L425.3 675.4Z" fill="#061322" stroke="#061322"></path><path d="M425.3 675.4L457.3 712.9L434 674.1Z" fill="#091524" stroke="#091524"></path><path d="M434 674.1L543.6 715.1L532.6 590.6Z" fill="#03121f" stroke="#03121f"></path><path d="M457.3 712.9L543.6 715.1L434 674.1Z" fill="#00101c" stroke="#00101c"></path><path d="M264.1 628.9L355.7 667.9L357 656.6Z" fill="#041320" stroke="#041320"></path><path d="M357 656.6L355.7 667.9L425.3 675.4Z" fill="#03121f" stroke="#03121f"></path><path d="M516 220.6L426 240.1L434 271.4Z" fill="#00101c" stroke="#00101c"></path><path d="M434 271.4L426 240.1L378 287.7Z" fill="#0d1629" stroke="#0d1629"></path><path d="M516 220.6L505.6 332.7L565.3 267.4Z" fill="#091524" stroke="#091524"></path><path d="M630.9 272.9L566.9 230.1L565.3 267.4Z" fill="#03121f" stroke="#03121f"></path><path d="M776.1 458.7L748.7 408L738.4 445.7Z" fill="#0d1629" stroke="#0d1629"></path><path d="M738.4 445.7L748.7 408L663.6 389.4Z" fill="#091524" stroke="#091524"></path><path d="M757.1 383.4L715.4 333.1L663.6 389.4Z" fill="#0a1526" stroke="#0a1526"></path><path d="M715.4 333.1L642.9 261.4L630.9 272.9Z" fill="#0c1627" stroke="#0c1627"></path><path d="M630.9 272.9L642.9 261.4L566.9 230.1Z" fill="#0d1629" stroke="#0d1629"></path><path d="M566.9 230.1L516 220.6L565.3 267.4Z" fill="#0d1629" stroke="#0d1629"></path><path d="M214.9 478L250.9 468.3L209.1 456.3Z" fill="#03121f" stroke="#03121f"></path><path d="M316.4 399L250.9 468.3L334.7 482.7Z" fill="#071423" stroke="#071423"></path><path d="M322.4 558.3L269.4 596.9L359.7 636.1Z" fill="#01111d" stroke="#01111d"></path><path d="M457.3 712.9L534.6 737.9L543.6 715.1Z" fill="#00101c" stroke="#00101c"></path><path d="M543.6 715.1L626.1 745.4L640.1 638.9Z" fill="#0f172a" stroke="#0f172a"></path><path d="M776.1 458.7L757.1 383.4L748.7 408Z" fill="#01111d" stroke="#01111d"></path><path d="M748.7 408L757.1 383.4L663.6 389.4Z" fill="#041320" stroke="#041320"></path><path d="M233.9 585.9L269.4 596.9L322.4 558.3Z" fill="#01111d" stroke="#01111d"></path><path d="M790.7 573.3L776.1 458.7L739.4 502Z" fill="#0c1627" stroke="#0c1627"></path><path d="M739.4 502L776.1 458.7L738.4 445.7Z" fill="#0a1526" stroke="#0a1526"></path><path d="M457.3 712.9L531.6 744.4L534.6 737.9Z" fill="#041320" stroke="#041320"></path><path d="M534.6 737.9L539.3 745.1L543.6 715.1Z" fill="#0d1629" stroke="#0d1629"></path><path d="M367.7 212.1L327.4 266.4L378 287.7Z" fill="#00101c" stroke="#00101c"></path><path d="M378 287.7L327.4 266.4L316.4 399Z" fill="#03121f" stroke="#03121f"></path><path d="M531.6 744.4L539.3 745.1L534.6 737.9Z" fill="#071423" stroke="#071423"></path><path d="M252.1 625.1L264.1 628.9L269.4 596.9Z" fill="#0a1526" stroke="#0a1526"></path><path d="M269.4 596.9L264.1 628.9L359.7 636.1Z" fill="#03121f" stroke="#03121f"></path><path d="M499 815.7L501.3 777.7L357.7 791.7Z" fill="#041320" stroke="#041320"></path><path d="M497.6 170.1L396.7 203.6L426 240.1Z" fill="#071423" stroke="#071423"></path><path d="M426 240.1L367.7 212.1L378 287.7Z" fill="#0d1629" stroke="#0d1629"></path><path d="M218.6 407.7L250.9 468.3L316.4 399Z" fill="#0a1526" stroke="#0a1526"></path><path d="M250.9 468.3L233.9 585.9L322.4 558.3Z" fill="#03121f" stroke="#03121f"></path><path d="M214.9 478L233.9 585.9L250.9 468.3Z" fill="#0d1629" stroke="#0d1629"></path><path d="M213.1 388.7L218.6 407.7L316.4 399Z" fill="#061322" stroke="#061322"></path><path d="M396.7 203.6L367.7 212.1L426 240.1Z" fill="#071423" stroke="#071423"></path><path d="M228.4 299.1L213.1 388.7L316.4 399Z" fill="#01111d" stroke="#01111d"></path><path d="M233.9 585.9L252.1 625.1L269.4 596.9Z" fill="#0a1526" stroke="#0a1526"></path><path d="M264.1 628.9L250.9 675.6L355.7 667.9Z" fill="#03121f" stroke="#03121f"></path><path d="M689.1 730.1L774.4 598.9L640.1 638.9Z" fill="#0d1629" stroke="#0d1629"></path><path d="M640.1 638.9L774.4 598.9L638.1 585.6Z" fill="#01111d" stroke="#01111d"></path><path d="M218.6 407.7L209.1 456.3L250.9 468.3Z" fill="#0d1629" stroke="#0d1629"></path><path d="M214.9 478L195.9 479.7L233.9 585.9Z" fill="#0c1627" stroke="#0c1627"></path><path d="M539.3 745.1L626.1 745.4L543.6 715.1Z" fill="#0a1526" stroke="#0a1526"></path><path d="M774.4 598.9L790.7 573.3L739.4 502Z" fill="#0c1627" stroke="#0c1627"></path><path d="M566.9 230.1L497.6 170.1L516 220.6Z" fill="#0a1526" stroke="#0a1526"></path><path d="M516 220.6L497.6 170.1L426 240.1Z" fill="#01111d" stroke="#01111d"></path><path d="M396.7 203.6L362.7 159.9L367.7 212.1Z" fill="#041320" stroke="#041320"></path><path d="M491.3 127.9L497.6 170.1L530 96.9Z" fill="#0f172a" stroke="#0f172a"></path><path d="M626.1 745.4L647.9 742.1L640.1 638.9Z" fill="#071423" stroke="#071423"></path><path d="M205.1 395L136.9 342.4L163.3 403Z" fill="#0d1629" stroke="#0d1629"></path><path d="M218.6 407.7L163.3 403L209.1 456.3Z" fill="#0c1627" stroke="#0c1627"></path><path d="M501.3 777.7L457.3 712.9L357.7 791.7Z" fill="#0c1627" stroke="#0c1627"></path><path d="M457.3 712.9L501.3 777.7L531.6 744.4Z" fill="#0a1526" stroke="#0a1526"></path><path d="M531.6 744.4L501.3 777.7L539.3 745.1Z" fill="#091524" stroke="#091524"></path><path d="M539.3 745.1L499 815.7L626.1 745.4Z" fill="#071423" stroke="#071423"></path><path d="M712.9 835.4L709.1 754.7L647.9 742.1Z" fill="#03121f" stroke="#03121f"></path><path d="M147.6 447L195.9 479.7L209.1 456.3Z" fill="#071423" stroke="#071423"></path><path d="M209.1 456.3L195.9 479.7L214.9 478Z" fill="#0f172a" stroke="#0f172a"></path><path d="M228.4 299.1L316.4 399L327.4 266.4Z" fill="#03121f" stroke="#03121f"></path><path d="M213.1 388.7L205.1 395L218.6 407.7Z" fill="#01111d" stroke="#01111d"></path><path d="M846.7 369.4L783.1 330.1L757.1 383.4Z" fill="#071423" stroke="#071423"></path><path d="M757.1 383.4L783.1 330.1L715.4 333.1Z" fill="#03121f" stroke="#03121f"></path><path d="M715.4 333.1L806.4 257.9L642.9 261.4Z" fill="#0a1526" stroke="#0a1526"></path><path d="M604.6 141.6L497.6 170.1L566.9 230.1Z" fill="#061322" stroke="#061322"></path><path d="M846.7 369.4L757.1 383.4L776.1 458.7Z" fill="#0c1627" stroke="#0c1627"></path><path d="M647.9 742.1L689.1 730.1L640.1 638.9Z" fill="#091524" stroke="#091524"></path><path d="M275.1 250.4L269.4 259.9L327.4 266.4Z" fill="#03121f" stroke="#03121f"></path><path d="M335.1 171.9L275.1 250.4L327.4 266.4Z" fill="#041320" stroke="#041320"></path><path d="M185.1 658.6L250.9 675.6L252.1 625.1Z" fill="#0a1526" stroke="#0a1526"></path><path d="M252.1 625.1L250.9 675.6L264.1 628.9Z" fill="#0c1627" stroke="#0c1627"></path><path d="M185.1 658.6L252.1 625.1L233.9 585.9Z" fill="#041320" stroke="#041320"></path><path d="M162.3 304.1L228.4 299.1L163.1 282.1Z" fill="#091524" stroke="#091524"></path><path d="M269.4 259.9L228.4 299.1L327.4 266.4Z" fill="#0f172a" stroke="#0f172a"></path><path d="M774.4 598.9L800.7 626.1L790.7 573.3Z" fill="#01111d" stroke="#01111d"></path><path d="M868.7 486.6L846.7 369.4L776.1 458.7Z" fill="#071423" stroke="#071423"></path><path d="M689.1 730.1L800.7 626.1L774.4 598.9Z" fill="#071423" stroke="#071423"></path><path d="M357.7 791.7L425.3 675.4L355.7 667.9Z" fill="#00101c" stroke="#00101c"></path><path d="M501.3 777.7L499 815.7L539.3 745.1Z" fill="#041320" stroke="#041320"></path><path d="M647.9 742.1L709.1 754.7L689.1 730.1Z" fill="#03121f" stroke="#03121f"></path><path d="M364.7 158.3L362.7 159.9L396.7 203.6Z" fill="#03121f" stroke="#03121f"></path><path d="M367.7 212.1L335.1 171.9L327.4 266.4Z" fill="#0f172a" stroke="#0f172a"></path><path d="M491.3 127.9L364.7 158.3L396.7 203.6Z" fill="#00101c" stroke="#00101c"></path><path d="M604.6 141.6L566.9 230.1L633.6 151.3Z" fill="#00101c" stroke="#00101c"></path><path d="M497.6 170.1L491.3 127.9L396.7 203.6Z" fill="#0f172a" stroke="#0f172a"></path><path d="M633.6 151.3L566.9 230.1L642.9 261.4Z" fill="#03121f" stroke="#03121f"></path><path d="M654.1 152.9L633.6 151.3L665.9 158.3Z" fill="#03121f" stroke="#03121f"></path><path d="M306.1 152.3L335.1 171.9L362.7 159.9Z" fill="#0f172a" stroke="#0f172a"></path><path d="M362.7 159.9L335.1 171.9L367.7 212.1Z" fill="#0d1629" stroke="#0d1629"></path><path d="M163.1 282.1L228.4 299.1L269.4 259.9Z" fill="#0c1627" stroke="#0c1627"></path><path d="M712.9 835.4L647.9 742.1L626.1 745.4Z" fill="#061322" stroke="#061322"></path><path d="M689.1 730.1L734.9 761.7L800.7 626.1Z" fill="#041320" stroke="#041320"></path><path d="M633.6 151.3L619.1 143.6L604.6 141.6Z" fill="#071423" stroke="#071423"></path><path d="M136.9 342.4L205.1 395L213.1 388.7Z" fill="#0d1629" stroke="#0d1629"></path><path d="M205.1 395L163.3 403L218.6 407.7Z" fill="#091524" stroke="#091524"></path><path d="M195.9 479.7L149.3 563.6L233.9 585.9Z" fill="#01111d" stroke="#01111d"></path><path d="M352 792.4L357.7 791.7L355.7 667.9Z" fill="#0f172a" stroke="#0f172a"></path><path d="M665.9 158.3L633.6 151.3L642.9 261.4Z" fill="#071423" stroke="#071423"></path><path d="M637.1 126.3L606.3 123.6L619.1 143.6Z" fill="#091524" stroke="#091524"></path><path d="M806.4 257.9L665.9 158.3L642.9 261.4Z" fill="#0a1526" stroke="#0a1526"></path><path d="M250.9 675.6L352 792.4L355.7 667.9Z" fill="#01111d" stroke="#01111d"></path><path d="M357.7 791.7L352.7 823.4L499 815.7Z" fill="#071423" stroke="#071423"></path><path d="M868.7 486.6L776.1 458.7L790.7 573.3Z" fill="#0a1526" stroke="#0a1526"></path><path d="M783.1 330.1L806.4 257.9L715.4 333.1Z" fill="#00101c" stroke="#00101c"></path><path d="M163.3 403L147.6 447L209.1 456.3Z" fill="#0a1526" stroke="#0a1526"></path><path d="M842.4 625.1L846.4 591.3L800.7 626.1Z" fill="#00101c" stroke="#00101c"></path><path d="M800.7 626.1L846.4 591.3L790.7 573.3Z" fill="#0f172a" stroke="#0f172a"></path><path d="M846.4 591.3L868.7 486.6L790.7 573.3Z" fill="#01111d" stroke="#01111d"></path><path d="M637.1 126.3L633.6 151.3L654.1 152.9Z" fill="#0f172a" stroke="#0f172a"></path><path d="M637.1 126.3L619.1 143.6L633.6 151.3Z" fill="#0c1627" stroke="#0c1627"></path><path d="M619.1 143.6L606.3 123.6L604.6 141.6Z" fill="#03121f" stroke="#03121f"></path><path d="M604.6 141.6L530 96.9L497.6 170.1Z" fill="#01111d" stroke="#01111d"></path><path d="M122.3 454.7L149.3 563.6L195.9 479.7Z" fill="#01111d" stroke="#01111d"></path><path d="M245.4 810.4L352.7 823.4L352 792.4Z" fill="#0a1526" stroke="#0a1526"></path><path d="M761.7 782.7L734.9 761.7L712.9 835.4Z" fill="#0a1526" stroke="#0a1526"></path><path d="M709.1 754.7L734.9 761.7L689.1 730.1Z" fill="#03121f" stroke="#03121f"></path><path d="M851.4 667.6L842.4 625.1L800.7 626.1Z" fill="#0c1627" stroke="#0c1627"></path><path d="M900 566.3L900 485L868.7 486.6Z" fill="#041320" stroke="#041320"></path><path d="M900 453.7L859.4 365.4L846.7 369.4Z" fill="#091524" stroke="#091524"></path><path d="M846.7 369.4L867.7 269.9L783.1 330.1Z" fill="#091524" stroke="#091524"></path><path d="M867.7 269.9L806.4 257.9L783.1 330.1Z" fill="#061322" stroke="#061322"></path><path d="M149.3 563.6L185.1 658.6L233.9 585.9Z" fill="#00101c" stroke="#00101c"></path><path d="M649.6 118.9L637.1 126.3L654.1 152.9Z" fill="#00101c" stroke="#00101c"></path><path d="M649.6 118.9L654.1 152.9L665.9 158.3Z" fill="#00101c" stroke="#00101c"></path><path d="M606.3 123.6L530 96.9L604.6 141.6Z" fill="#061322" stroke="#061322"></path><path d="M491.3 127.9L337.4 74.6L364.7 158.3Z" fill="#061322" stroke="#061322"></path><path d="M558.9 0L530 96.9L606.3 123.6Z" fill="#091524" stroke="#091524"></path><path d="M290.9 147.3L306.1 152.3L337.4 74.6Z" fill="#0d1629" stroke="#0d1629"></path><path d="M364.7 158.3L306.1 152.3L362.7 159.9Z" fill="#03121f" stroke="#03121f"></path><path d="M335.1 171.9L306.1 152.3L275.1 250.4Z" fill="#0d1629" stroke="#0d1629"></path><path d="M228.4 299.1L162.3 304.1L213.1 388.7Z" fill="#0d1629" stroke="#0d1629"></path><path d="M771.4 116.6L649.6 118.9L665.9 158.3Z" fill="#0f172a" stroke="#0f172a"></path><path d="M637.1 126.3L638.9 100.6L606.3 123.6Z" fill="#0f172a" stroke="#0f172a"></path><path d="M224.4 740.1L352 792.4L250.9 675.6Z" fill="#00101c" stroke="#00101c"></path><path d="M352 792.4L352.7 823.4L357.7 791.7Z" fill="#0c1627" stroke="#0c1627"></path><path d="M163.1 282.1L269.4 259.9L275.1 250.4Z" fill="#0c1627" stroke="#0c1627"></path><path d="M163.3 403L122.3 454.7L147.6 447Z" fill="#041320" stroke="#041320"></path><path d="M136.9 342.4L122.3 454.7L163.3 403Z" fill="#0f172a" stroke="#0f172a"></path><path d="M147.6 447L122.3 454.7L195.9 479.7Z" fill="#061322" stroke="#061322"></path><path d="M186.6 697.4L224.4 740.1L250.9 675.6Z" fill="#071423" stroke="#071423"></path><path d="M267.9 136.9L290.9 147.3L337.4 74.6Z" fill="#0a1526" stroke="#0a1526"></path><path d="M306.1 152.3L290.9 147.3L275.1 250.4Z" fill="#0a1526" stroke="#0a1526"></path><path d="M102.6 657.9L186.6 697.4L185.1 658.6Z" fill="#0a1526" stroke="#0a1526"></path><path d="M185.1 658.6L186.6 697.4L250.9 675.6Z" fill="#01111d" stroke="#01111d"></path><path d="M162.3 304.1L136.9 342.4L213.1 388.7Z" fill="#061322" stroke="#061322"></path><path d="M157.1 125.6L163.1 282.1L275.1 250.4Z" fill="#00101c" stroke="#00101c"></path><path d="M162.3 304.1L141.6 293.1L136.9 342.4Z" fill="#0d1629" stroke="#0d1629"></path><path d="M900 566.3L868.7 486.6L846.4 591.3Z" fill="#0f172a" stroke="#0f172a"></path><path d="M868.7 486.6L900 453.7L846.7 369.4Z" fill="#0c1627" stroke="#0c1627"></path><path d="M900 485L900 453.7L868.7 486.6Z" fill="#0c1627" stroke="#0c1627"></path><path d="M771.4 116.6L638.9 100.6L649.6 118.9Z" fill="#0a1526" stroke="#0a1526"></path><path d="M649.6 118.9L638.9 100.6L637.1 126.3Z" fill="#091524" stroke="#091524"></path><path d="M799.4 748.4L851.4 667.6L800.7 626.1Z" fill="#0a1526" stroke="#0a1526"></path><path d="M900 595.6L900 566.3L846.4 591.3Z" fill="#00101c" stroke="#00101c"></path><path d="M712.9 835.4L734.9 761.7L709.1 754.7Z" fill="#0f172a" stroke="#0f172a"></path><path d="M734.9 761.7L799.4 748.4L800.7 626.1Z" fill="#01111d" stroke="#01111d"></path><path d="M761.7 782.7L799.4 748.4L734.9 761.7Z" fill="#041320" stroke="#041320"></path><path d="M900 595.6L846.4 591.3L842.4 625.1Z" fill="#01111d" stroke="#01111d"></path><path d="M109.6 174.9L141.6 293.1L163.1 282.1Z" fill="#0c1627" stroke="#0c1627"></path><path d="M163.1 282.1L141.6 293.1L162.3 304.1Z" fill="#0c1627" stroke="#0c1627"></path><path d="M34.6 560.3L67.6 551.6L0 537Z" fill="#061322" stroke="#061322"></path><path d="M800.4 824.7L814.7 745.4L799.4 748.4Z" fill="#01111d" stroke="#01111d"></path><path d="M799.4 748.4L814.7 745.4L851.4 667.6Z" fill="#03121f" stroke="#03121f"></path><path d="M900 658.9L900 595.6L842.4 625.1Z" fill="#00101c" stroke="#00101c"></path><path d="M337.4 74.6L306.1 152.3L364.7 158.3Z" fill="#0c1627" stroke="#0c1627"></path><path d="M290.9 147.3L267.9 136.9L275.1 250.4Z" fill="#0d1629" stroke="#0d1629"></path><path d="M900 658.9L842.4 625.1L851.4 667.6Z" fill="#061322" stroke="#061322"></path><path d="M900 337.1L867.7 269.9L859.4 365.4Z" fill="#061322" stroke="#061322"></path><path d="M859.4 365.4L867.7 269.9L846.7 369.4Z" fill="#061322" stroke="#061322"></path><path d="M806.4 257.9L799.4 155.3L665.9 158.3Z" fill="#071423" stroke="#071423"></path><path d="M923.7 376.7L900 337.1L859.4 365.4Z" fill="#0c1627" stroke="#0c1627"></path><path d="M761.7 782.7L800.4 824.7L799.4 748.4Z" fill="#00101c" stroke="#00101c"></path><path d="M670.1 900L712.9 835.4L626.1 745.4Z" fill="#03121f" stroke="#03121f"></path><path d="M542.6 900L626.1 745.4L499 815.7Z" fill="#00101c" stroke="#00101c"></path><path d="M186.6 697.4L208.9 768.1L224.4 740.1Z" fill="#0a1526" stroke="#0a1526"></path><path d="M224.4 740.1L245.4 810.4L352 792.4Z" fill="#061322" stroke="#061322"></path><path d="M900 595.6L919.7 559.9L900 566.3Z" fill="#041320" stroke="#041320"></path><path d="M900 566.3L919.7 559.9L900 485Z" fill="#00101c" stroke="#00101c"></path><path d="M900 485L923.7 376.7L900 453.7Z" fill="#091524" stroke="#091524"></path><path d="M900 453.7L923.7 376.7L859.4 365.4Z" fill="#01111d" stroke="#01111d"></path><path d="M208.9 768.1L245.4 810.4L224.4 740.1Z" fill="#0a1526" stroke="#0a1526"></path><path d="M469.3 900L499 815.7L352.7 823.4Z" fill="#0c1627" stroke="#0c1627"></path><path d="M469.3 900L529 900L499 815.7Z" fill="#00101c" stroke="#00101c"></path><path d="M351.7 900L469.3 900L352.7 823.4Z" fill="#01111d" stroke="#01111d"></path><path d="M529 900L542.6 900L499 815.7Z" fill="#071423" stroke="#071423"></path><path d="M919.7 559.9L923.7 376.7L900 485Z" fill="#0c1627" stroke="#0c1627"></path><path d="M900 337.1L900 247.4L867.7 269.9Z" fill="#071423" stroke="#071423"></path><path d="M900 199.9L799.4 155.3L806.4 257.9Z" fill="#0a1526" stroke="#0a1526"></path><path d="M420.3 0L337.4 74.6L491.3 127.9Z" fill="#0a1526" stroke="#0a1526"></path><path d="M498.3 6.3L491.3 127.9L530 96.9Z" fill="#0c1627" stroke="#0c1627"></path><path d="M900 595.6L900 658.9L919.7 559.9Z" fill="#0a1526" stroke="#0a1526"></path><path d="M900 719.1L900 658.9L851.4 667.6Z" fill="#0d1629" stroke="#0d1629"></path><path d="M245.4 810.4L307.4 866.7L352.7 823.4Z" fill="#01111d" stroke="#01111d"></path><path d="M186.6 697.4L186.9 785.4L208.9 768.1Z" fill="#0f172a" stroke="#0f172a"></path><path d="M208.9 768.1L186.9 785.4L245.4 810.4Z" fill="#071423" stroke="#071423"></path><path d="M149.3 563.6L102.6 657.9L185.1 658.6Z" fill="#041320" stroke="#041320"></path><path d="M50.3 590.3L102.6 657.9L149.3 563.6Z" fill="#01111d" stroke="#01111d"></path><path d="M799.4 155.3L771.4 116.6L665.9 158.3Z" fill="#091524" stroke="#091524"></path><path d="M67.6 551.6L122.3 454.7L0 430.7Z" fill="#0f172a" stroke="#0f172a"></path><path d="M122.3 454.7L67.6 551.6L149.3 563.6Z" fill="#01111d" stroke="#01111d"></path><path d="M99.6 754.1L186.9 785.4L186.6 697.4Z" fill="#0a1526" stroke="#0a1526"></path><path d="M245.4 810.4L222.1 833.7L307.4 866.7Z" fill="#01111d" stroke="#01111d"></path><path d="M529 900L559.6 922.7L542.6 900Z" fill="#091524" stroke="#091524"></path><path d="M542.6 900L670.1 900L626.1 745.4Z" fill="#0a1526" stroke="#0a1526"></path><path d="M469.3 900L559.6 922.7L529 900Z" fill="#091524" stroke="#091524"></path><path d="M351.7 900L559.6 922.7L469.3 900Z" fill="#0d1629" stroke="#0d1629"></path><path d="M271.4 900L351.7 900L307.4 866.7Z" fill="#0c1627" stroke="#0c1627"></path><path d="M307.4 866.7L351.7 900L352.7 823.4Z" fill="#0a1526" stroke="#0a1526"></path><path d="M923.7 376.7L900 247.4L900 337.1Z" fill="#0a1526" stroke="#0a1526"></path><path d="M867.7 269.9L900 199.9L806.4 257.9Z" fill="#071423" stroke="#071423"></path><path d="M900 82.3L803.7 33.6L771.4 116.6Z" fill="#041320" stroke="#041320"></path><path d="M559.6 922.7L670.1 900L542.6 900Z" fill="#0c1627" stroke="#0c1627"></path><path d="M712.9 835.4L800.4 824.7L761.7 782.7Z" fill="#03121f" stroke="#03121f"></path><path d="M814.7 745.4L900 719.1L851.4 667.6Z" fill="#01111d" stroke="#01111d"></path><path d="M749.4 900L800.4 824.7L712.9 835.4Z" fill="#071423" stroke="#071423"></path><path d="M186.9 785.4L222.1 833.7L245.4 810.4Z" fill="#0a1526" stroke="#0a1526"></path><path d="M900 855.4L900 719.1L814.7 745.4Z" fill="#00101c" stroke="#00101c"></path><path d="M900 658.9L900 719.1L919.7 559.9Z" fill="#03121f" stroke="#03121f"></path><path d="M543.6 0L530 96.9L558.9 0Z" fill="#0c1627" stroke="#0c1627"></path><path d="M543.6 0L498.3 6.3L530 96.9Z" fill="#0a1526" stroke="#0a1526"></path><path d="M34.6 560.3L50.3 590.3L67.6 551.6Z" fill="#0d1629" stroke="#0d1629"></path><path d="M67.6 551.6L50.3 590.3L149.3 563.6Z" fill="#0a1526" stroke="#0a1526"></path><path d="M158.9 880.7L202.1 853.4L186.9 785.4Z" fill="#091524" stroke="#091524"></path><path d="M498.3 6.3L471 0L491.3 127.9Z" fill="#0c1627" stroke="#0c1627"></path><path d="M558.9 0L606.3 123.6L638.9 100.6Z" fill="#0f172a" stroke="#0f172a"></path><path d="M498.3 6.3L543.6 0L471 0Z" fill="#091524" stroke="#091524"></path><path d="M559.6 922.7L714.9 900L670.1 900Z" fill="#03121f" stroke="#03121f"></path><path d="M670.1 900L714.9 900L712.9 835.4Z" fill="#00101c" stroke="#00101c"></path><path d="M765.7 0L558.9 0L638.9 100.6Z" fill="#091524" stroke="#091524"></path><path d="M0 430.7L122.3 454.7L0 379.4Z" fill="#061322" stroke="#061322"></path><path d="M900 247.4L900 199.9L867.7 269.9Z" fill="#091524" stroke="#091524"></path><path d="M911.7 172.1L900 199.9L900 247.4Z" fill="#0a1526" stroke="#0a1526"></path><path d="M471 0L420.3 0L491.3 127.9Z" fill="#0c1627" stroke="#0c1627"></path><path d="M178.9 79.6L157.1 125.6L267.9 136.9Z" fill="#0a1526" stroke="#0a1526"></path><path d="M543.6 0L434 -7.7L471 0Z" fill="#071423" stroke="#071423"></path><path d="M471 0L434 -7.7L420.3 0Z" fill="#0d1629" stroke="#0d1629"></path><path d="M766.7 -33.7L434 -7.7L543.6 0Z" fill="#01111d" stroke="#01111d"></path><path d="M186.9 785.4L202.1 853.4L222.1 833.7Z" fill="#061322" stroke="#061322"></path><path d="M222.1 833.7L271.4 900L307.4 866.7Z" fill="#071423" stroke="#071423"></path><path d="M99.6 754.1L186.6 697.4L102.6 657.9Z" fill="#03121f" stroke="#03121f"></path><path d="M235.1 900L271.4 900L222.1 833.7Z" fill="#091524" stroke="#091524"></path><path d="M351.7 900L271.4 900L559.6 922.7Z" fill="#061322" stroke="#061322"></path><path d="M434 -7.7L382.4 0L420.3 0Z" fill="#03121f" stroke="#03121f"></path><path d="M420.3 0L382.4 0L337.4 74.6Z" fill="#0a1526" stroke="#0a1526"></path><path d="M714.9 900L749.4 900L712.9 835.4Z" fill="#061322" stroke="#061322"></path><path d="M800.4 824.7L900 855.4L814.7 745.4Z" fill="#0a1526" stroke="#0a1526"></path><path d="M900 926.7L749.4 900L714.9 900Z" fill="#03121f" stroke="#03121f"></path><path d="M267.9 136.9L157.1 125.6L275.1 250.4Z" fill="#03121f" stroke="#03121f"></path><path d="M0 379.4L122.3 454.7L136.9 342.4Z" fill="#0c1627" stroke="#0c1627"></path><path d="M290.4 28.3L267.9 136.9L337.4 74.6Z" fill="#0f172a" stroke="#0f172a"></path><path d="M351.7 0L290.4 28.3L337.4 74.6Z" fill="#061322" stroke="#061322"></path><path d="M99.3 754.1L102.6 657.9L5.3 679.4Z" fill="#0a1526" stroke="#0a1526"></path><path d="M99.3 754.1L99.6 754.1L102.6 657.9Z" fill="#0c1627" stroke="#0c1627"></path><path d="M19.3 619.9L102.6 657.9L50.3 590.3Z" fill="#03121f" stroke="#03121f"></path><path d="M99.6 754.1L111.6 788.7L186.9 785.4Z" fill="#0c1627" stroke="#0c1627"></path><path d="M157.1 125.6L109.6 174.9L163.1 282.1Z" fill="#071423" stroke="#071423"></path><path d="M434 -7.7L351.7 0L382.4 0Z" fill="#0d1629" stroke="#0d1629"></path><path d="M382.4 0L351.7 0L337.4 74.6Z" fill="#071423" stroke="#071423"></path><path d="M157.1 125.6L108.9 171.1L109.6 174.9Z" fill="#071423" stroke="#071423"></path><path d="M0 379.4L136.9 342.4L29.6 259.4Z" fill="#01111d" stroke="#01111d"></path><path d="M923.7 376.7L911.7 172.1L900 247.4Z" fill="#03121f" stroke="#03121f"></path><path d="M900 199.9L911.7 172.1L799.4 155.3Z" fill="#0f172a" stroke="#0f172a"></path><path d="M771.4 116.6L765.7 0L638.9 100.6Z" fill="#071423" stroke="#071423"></path><path d="M99.3 754.1L111.6 788.7L99.6 754.1Z" fill="#0a1526" stroke="#0a1526"></path><path d="M213.9 900L235.1 900L202.1 853.4Z" fill="#041320" stroke="#041320"></path><path d="M202.1 853.4L235.1 900L222.1 833.7Z" fill="#091524" stroke="#091524"></path><path d="M271.4 900L235.1 900L559.6 922.7Z" fill="#071423" stroke="#071423"></path><path d="M136.9 342.4L141.6 293.1L29.6 259.4Z" fill="#03121f" stroke="#03121f"></path><path d="M0 558.3L19.3 619.9L34.6 560.3Z" fill="#03121f" stroke="#03121f"></path><path d="M34.6 560.3L19.3 619.9L50.3 590.3Z" fill="#091524" stroke="#091524"></path><path d="M99.3 754.1L53.3 804.7L111.6 788.7Z" fill="#0f172a" stroke="#0f172a"></path><path d="M0 430.7L0 537L67.6 551.6Z" fill="#03121f" stroke="#03121f"></path><path d="M185.9 0L178.9 79.6L290.4 28.3Z" fill="#0d1629" stroke="#0d1629"></path><path d="M290.4 28.3L178.9 79.6L267.9 136.9Z" fill="#00101c" stroke="#00101c"></path><path d="M157.1 125.6L104.3 132.6L108.9 171.1Z" fill="#071423" stroke="#071423"></path><path d="M0 537L0 558.3L34.6 560.3Z" fill="#03121f" stroke="#03121f"></path><path d="M29.6 259.4L141.6 293.1L109.6 174.9Z" fill="#03121f" stroke="#03121f"></path><path d="M158.9 880.7L213.9 900L202.1 853.4Z" fill="#061322" stroke="#061322"></path><path d="M235.1 900L213.9 900L559.6 922.7Z" fill="#0a1526" stroke="#0a1526"></path><path d="M51.6 175.6L109.6 174.9L108.9 171.1Z" fill="#0f172a" stroke="#0f172a"></path><path d="M51.6 175.6L29.6 259.4L109.6 174.9Z" fill="#01111d" stroke="#01111d"></path><path d="M119.3 30.3L104.3 132.6L157.1 125.6Z" fill="#091524" stroke="#091524"></path><path d="M0 558.3L0 632.1L19.3 619.9Z" fill="#071423" stroke="#071423"></path><path d="M19.3 619.9L5.3 679.4L102.6 657.9Z" fill="#00101c" stroke="#00101c"></path><path d="M900 82.3L771.4 116.6L799.4 155.3Z" fill="#00101c" stroke="#00101c"></path><path d="M0 632.1L0 633.6L19.3 619.9Z" fill="#0d1629" stroke="#0d1629"></path><path d="M111.6 788.7L158.9 880.7L186.9 785.4Z" fill="#0d1629" stroke="#0d1629"></path><path d="M136.3 900L158.9 880.7L85.6 900Z" fill="#0d1629" stroke="#0d1629"></path><path d="M803.7 33.6L765.7 0L771.4 116.6Z" fill="#0c1627" stroke="#0c1627"></path><path d="M558.9 0L766.7 -33.7L543.6 0Z" fill="#0c1627" stroke="#0c1627"></path><path d="M0 633.6L5.3 679.4L19.3 619.9Z" fill="#03121f" stroke="#03121f"></path><path d="M76.3 133.9L51.6 175.6L108.9 171.1Z" fill="#071423" stroke="#071423"></path><path d="M803.7 33.6L774.4 0L765.7 0Z" fill="#071423" stroke="#071423"></path><path d="M765.7 0L766.7 -33.7L558.9 0Z" fill="#0a1526" stroke="#0a1526"></path><path d="M0 248.9L-33.7 392.4L0 379.4Z" fill="#0a1526" stroke="#0a1526"></path><path d="M0 379.4L-33.7 392.4L0 430.7Z" fill="#0c1627" stroke="#0c1627"></path><path d="M0 430.7L-33.7 392.4L0 537Z" fill="#071423" stroke="#071423"></path><path d="M0 537L-33.7 392.4L0 558.3Z" fill="#03121f" stroke="#03121f"></path><path d="M0 558.3L-33.7 392.4L0 632.1Z" fill="#00101c" stroke="#00101c"></path><path d="M0 632.1L-33.7 392.4L0 633.6Z" fill="#0c1627" stroke="#0c1627"></path><path d="M0 633.6L0 678.4L5.3 679.4Z" fill="#0f172a" stroke="#0f172a"></path><path d="M0 248.9L0 379.4L29.6 259.4Z" fill="#071423" stroke="#071423"></path><path d="M-33.7 392.4L0 678.4L0 633.6Z" fill="#00101c" stroke="#00101c"></path><path d="M0 726.9L53.3 804.7L99.3 754.1Z" fill="#0f172a" stroke="#0f172a"></path><path d="M104.3 132.6L76.3 133.9L108.9 171.1Z" fill="#00101c" stroke="#00101c"></path><path d="M107.6 32.3L76.3 133.9L104.3 132.6Z" fill="#0c1627" stroke="#0c1627"></path><path d="M898.7 900L900 855.4L800.4 824.7Z" fill="#0a1526" stroke="#0a1526"></path><path d="M900 719.1L900 855.4L919.7 559.9Z" fill="#071423" stroke="#071423"></path><path d="M900 0L792.1 0L803.7 33.6Z" fill="#061322" stroke="#061322"></path><path d="M803.7 33.6L792.1 0L774.4 0Z" fill="#0a1526" stroke="#0a1526"></path><path d="M774.4 0L766.7 -33.7L765.7 0Z" fill="#0c1627" stroke="#0c1627"></path><path d="M0 164.1L0 248.9L51.6 175.6Z" fill="#0c1627" stroke="#0c1627"></path><path d="M51.6 175.6L0 248.9L29.6 259.4Z" fill="#041320" stroke="#041320"></path><path d="M911.7 172.1L900 82.3L799.4 155.3Z" fill="#0a1526" stroke="#0a1526"></path><path d="M0 726.9L99.3 754.1L5.3 679.4Z" fill="#061322" stroke="#061322"></path><path d="M85.6 900L158.9 880.7L111.6 788.7Z" fill="#0d1629" stroke="#0d1629"></path><path d="M158.9 880.7L136.3 900L213.9 900Z" fill="#0a1526" stroke="#0a1526"></path><path d="M213.9 900L136.3 900L559.6 922.7Z" fill="#0c1627" stroke="#0c1627"></path><path d="M0 678.4L0 726.9L5.3 679.4Z" fill="#0c1627" stroke="#0c1627"></path><path d="M-33.7 392.4L0 726.9L0 678.4Z" fill="#00101c" stroke="#00101c"></path><path d="M900 0L766.7 -33.7L792.1 0Z" fill="#03121f" stroke="#03121f"></path><path d="M792.1 0L766.7 -33.7L774.4 0Z" fill="#01111d" stroke="#01111d"></path><path d="M351.7 0L185.9 0L290.4 28.3Z" fill="#071423" stroke="#071423"></path><path d="M178.9 79.6L119.3 30.3L157.1 125.6Z" fill="#091524" stroke="#091524"></path><path d="M0 -26.7L185.9 0L351.7 0Z" fill="#03121f" stroke="#03121f"></path><path d="M160.1 0L185.9 0L0 -26.7Z" fill="#01111d" stroke="#01111d"></path><path d="M900 82.3L900 53.6L803.7 33.6Z" fill="#01111d" stroke="#01111d"></path><path d="M911.7 172.1L900 53.6L900 82.3Z" fill="#091524" stroke="#091524"></path><path d="M900 926.7L898.7 900L749.4 900Z" fill="#091524" stroke="#091524"></path><path d="M749.4 900L898.7 900L800.4 824.7Z" fill="#061322" stroke="#061322"></path><path d="M900 855.4L900 900L919.7 559.9Z" fill="#0c1627" stroke="#0c1627"></path><path d="M900 926.7L900 900L898.7 900Z" fill="#00101c" stroke="#00101c"></path><path d="M898.7 900L900 900L900 855.4Z" fill="#061322" stroke="#061322"></path><path d="M92.3 0L160.1 0L0 -26.7Z" fill="#071423" stroke="#071423"></path><path d="M185.9 0L160.1 0L178.9 79.6Z" fill="#03121f" stroke="#03121f"></path><path d="M0 153.6L0 164.1L51.6 175.6Z" fill="#091524" stroke="#091524"></path><path d="M160.1 0L119.3 30.3L178.9 79.6Z" fill="#041320" stroke="#041320"></path><path d="M0 153.6L51.6 175.6L76.3 133.9Z" fill="#0f172a" stroke="#0f172a"></path><path d="M0 248.9L0 164.1L-33.7 392.4Z" fill="#03121f" stroke="#03121f"></path><path d="M119.3 30.3L107.6 32.3L104.3 132.6Z" fill="#03121f" stroke="#03121f"></path><path d="M92.3 0L107.6 32.3L119.3 30.3Z" fill="#041320" stroke="#041320"></path><path d="M35.6 0L0 153.6L76.3 133.9Z" fill="#041320" stroke="#041320"></path><path d="M0 164.1L0 153.6L-33.7 392.4Z" fill="#0c1627" stroke="#0c1627"></path><path d="M0 879.7L85.6 900L53.3 804.7Z" fill="#071423" stroke="#071423"></path><path d="M53.3 804.7L85.6 900L111.6 788.7Z" fill="#0c1627" stroke="#0c1627"></path><path d="M136.3 900L85.6 900L559.6 922.7Z" fill="#061322" stroke="#061322"></path><path d="M559.6 922.7L900 926.7L714.9 900Z" fill="#01111d" stroke="#01111d"></path><path d="M900 900L900 926.7L919.7 559.9Z" fill="#0d1629" stroke="#0d1629"></path><path d="M900 53.6L900 0L803.7 33.6Z" fill="#0f172a" stroke="#0f172a"></path><path d="M911.7 172.1L900 0L900 53.6Z" fill="#00101c" stroke="#00101c"></path><path d="M0 -26.7L351.7 0L434 -7.7Z" fill="#0c1627" stroke="#0c1627"></path><path d="M160.1 0L92.3 0L119.3 30.3Z" fill="#0c1627" stroke="#0c1627"></path><path d="M107.6 32.3L35.6 0L76.3 133.9Z" fill="#071423" stroke="#071423"></path><path d="M-33.7 392.4L0 879.7L0 726.9Z" fill="#0c1627" stroke="#0c1627"></path><path d="M0 726.9L0 879.7L53.3 804.7Z" fill="#041320" stroke="#041320"></path><path d="M-33.7 392.4L0 900L0 879.7Z" fill="#041320" stroke="#041320"></path><path d="M0 879.7L0 900L85.6 900Z" fill="#091524" stroke="#091524"></path><path d="M85.6 900L0 900L559.6 922.7Z" fill="#01111d" stroke="#01111d"></path><path d="M0 -26.7L35.6 0L92.3 0Z" fill="#0c1627" stroke="#0c1627"></path><path d="M92.3 0L35.6 0L107.6 32.3Z" fill="#091524" stroke="#091524"></path><path d="M0 -26.7L0 0L35.6 0Z" fill="#00101c" stroke="#00101c"></path><path d="M35.6 0L0 0L0 153.6Z" fill="#041320" stroke="#041320"></path><path d="M0 153.6L0 0L-33.7 392.4Z" fill="#061322" stroke="#061322"></path><path d="M766.7 -33.7L0 -26.7L434 -7.7Z" fill="#0a1526" stroke="#0a1526"></path><path d="M0 0L0 -26.7L-33.7 392.4Z" fill="#0d1629" stroke="#0d1629"></path></g></svg>